<svg xmlns="http://www.w3.org/2000/svg" width="1080" height="1080" viewBox="0 0 1080 1080" version="1.1">
	<path d="M 531.559 265.481 C 512.967 287.767, 497.399 306, 496.964 306 C 496.528 306, 475.553 294.316, 450.352 280.036 L 404.531 254.071 396.304 301.786 C 391.779 328.029, 387.718 351.525, 387.281 354 L 386.485 358.500 365.993 359.112 C 354.722 359.449, 330.762 359.786, 312.750 359.862 C 294.738 359.938, 280 360.191, 280 360.425 C 280 360.659, 288.100 382.918, 298 409.890 C 307.900 436.861, 316 459.305, 316 459.764 C 316 460.556, 298.059 471.332, 248.500 500.307 C 236.400 507.382, 226.156 513.498, 225.735 513.900 C 225.314 514.302, 243.202 529.858, 265.485 548.469 C 287.768 567.080, 306 582.622, 306 583.007 C 306 583.391, 294.683 603.685, 280.851 628.103 C 267.019 652.521, 255.519 673.182, 255.296 674.015 C 254.958 675.274, 263.559 677.027, 306.195 684.388 C 334.413 689.261, 357.842 693.555, 358.259 693.933 C 358.677 694.310, 359.313 718.329, 359.673 747.309 C 360.033 776.289, 360.457 800, 360.615 800 C 360.774 800, 382.985 791.900, 409.972 782 C 436.960 772.100, 459.369 764.003, 459.771 764.006 C 460.172 764.009, 472.599 784.523, 487.387 809.591 C 513.124 853.221, 514.348 855.092, 516.005 853.335 C 516.958 852.326, 532.236 834.063, 549.957 812.750 C 567.678 791.438, 582.556 774, 583.018 774 C 583.481 774, 604.470 785.707, 629.662 800.016 L 675.465 826.031 681.712 789.766 C 685.148 769.820, 689.206 746.300, 690.729 737.500 L 693.500 721.500 712 720.878 C 722.175 720.535, 746.138 720.198, 765.250 720.128 C 784.362 720.057, 800 719.804, 800 719.564 C 800 719.324, 791.872 697.020, 781.939 669.998 C 772.005 642.977, 764.017 620.462, 764.189 619.966 C 764.360 619.470, 784.525 607.316, 809 592.957 C 833.475 578.597, 853.845 566.516, 854.266 566.108 C 854.688 565.701, 836.801 550.164, 814.516 531.581 C 792.232 512.999, 774 497.445, 774 497.016 C 774 496.588, 785.318 476.271, 799.151 451.869 C 812.985 427.466, 824.489 406.803, 824.716 405.951 C 825.062 404.652, 819.177 403.378, 788.314 398.067 C 768.066 394.582, 744.750 390.550, 736.500 389.106 L 721.500 386.480 720.880 367.490 C 720.540 357.046, 720.202 333.039, 720.130 314.143 C 720.028 287.132, 719.733 279.881, 718.750 280.229 C 718.063 280.473, 695.559 288.692, 668.741 298.494 C 641.924 308.296, 619.811 316.132, 619.602 315.908 C 619.393 315.684, 607.416 295.475, 592.986 271 C 578.557 246.525, 566.439 226.154, 566.057 225.731 C 565.675 225.308, 550.151 243.196, 531.559 265.481 M 681.795 428.205 C 673.708 431.578, 667.239 434.599, 667.421 434.919 C 691.548 477.395, 697.343 486.992, 698.827 486.932 C 699.747 486.895, 703.495 485.432, 707.157 483.682 L 713.813 480.500 705.748 451.250 C 701.312 435.163, 697.416 422.016, 697.091 422.036 C 696.766 422.057, 689.883 424.833, 681.795 428.205 M 647.304 442.937 C 640.046 446.029, 633.840 448.826, 633.513 449.154 C 633.185 449.481, 635.397 461.369, 638.429 475.571 C 641.460 489.774, 643.841 501.490, 643.720 501.609 C 643.599 501.728, 636.750 491.985, 628.500 479.960 C 620.250 467.934, 613.056 458.073, 612.514 458.047 C 611.972 458.021, 605.564 460.526, 598.274 463.614 C 586.413 468.638, 585.073 469.453, 585.527 471.364 C 586.629 475.997, 595.704 522, 595.516 522 C 595.406 522, 588.607 512.111, 580.408 500.024 C 572.209 487.937, 565.125 478.037, 564.666 478.024 C 563.941 478.003, 537.023 488.898, 536.185 489.551 C 535.913 489.763, 589.969 565.083, 592.001 567.324 C 593.231 568.681, 623 555.901, 623 554.016 C 623 553.130, 620.731 540.558, 617.958 526.078 C 615.185 511.598, 613.095 499.571, 613.314 499.353 C 613.532 499.134, 621.006 509.500, 629.922 522.388 L 646.134 545.820 656.817 541.323 C 662.693 538.850, 669.300 536.122, 671.500 535.263 C 673.700 534.403, 675.827 533.417, 676.227 533.072 C 676.837 532.547, 661.549 438.068, 660.763 437.504 C 660.618 437.401, 654.562 439.845, 647.304 442.937 M 711 490.530 C 706.875 492.374, 701.836 494.538, 699.802 495.340 L 696.105 496.798 700.650 507.649 C 703.149 513.617, 705.553 518.880, 705.991 519.344 C 706.701 520.096, 728.272 511.799, 730.318 509.988 C 730.768 509.589, 729.035 504.254, 726.467 498.132 C 723.120 490.156, 721.329 487.025, 720.148 487.089 C 719.242 487.138, 715.125 488.686, 711 490.530 M 491.500 508.016 C 472.250 516.181, 455.865 523.254, 455.090 523.733 C 453.954 524.435, 457.138 532.867, 471.451 567.052 C 481.225 590.399, 489.510 609.802, 489.861 610.171 C 490.450 610.788, 563.620 580.679, 565.200 579.169 C 566.422 578.001, 557.508 558.462, 555.922 558.832 C 555.140 559.015, 544.425 563.415, 532.111 568.610 C 519.798 573.805, 509.575 577.908, 509.395 577.728 C 508.612 576.945, 503.950 565.717, 504.273 565.394 C 504.470 565.197, 513.377 561.372, 524.065 556.893 C 534.754 552.415, 543.643 548.627, 543.817 548.475 C 544.650 547.750, 535.581 527.952, 534.605 528.362 C 533.997 528.617, 525.400 532.282, 515.500 536.507 C 505.600 540.731, 497.026 544.385, 496.447 544.625 C 495.346 545.083, 490.384 534.282, 491.283 533.384 C 491.567 533.100, 501.848 528.648, 514.131 523.489 C 526.414 518.331, 536.610 513.671, 536.789 513.134 C 537.351 511.448, 529.238 493.508, 527.835 493.335 C 527.101 493.245, 510.750 499.851, 491.500 508.016 M 422.250 537.224 C 415.512 540.062, 410 542.763, 410 543.225 C 410 543.687, 413.644 552.713, 418.098 563.282 C 422.551 573.852, 426.452 583.135, 426.766 583.911 C 427.080 584.687, 415.221 579.106, 400.413 571.509 L 373.488 557.696 361.994 562.492 C 355.672 565.130, 350.149 567.597, 349.719 567.975 C 349.108 568.512, 381.688 648.059, 384.762 653.535 C 385.332 654.550, 388.351 653.696, 398 649.790 C 404.875 647.007, 410.634 644.619, 410.799 644.483 C 410.963 644.347, 407.283 635.076, 402.621 623.879 C 397.959 612.683, 394.288 603.379, 394.463 603.203 C 394.639 603.028, 406.545 608.768, 420.921 615.960 L 447.059 629.037 459.457 623.939 L 471.856 618.841 467.375 608.171 C 464.911 602.302, 456.736 582.763, 449.210 564.750 C 441.683 546.737, 435.294 532.014, 435.012 532.031 C 434.731 532.048, 428.988 534.385, 422.250 537.224" stroke="none" fill="#000000" fill-rule="evenodd"/>
</svg>